<svg xmlns="http://www.w3.org/2000/svg" xmlns:xlink="http://www.w3.org/1999/xlink" width="1920" zoomAndPan="magnify" viewBox="0 0 1440 1439.999935" height="1920" preserveAspectRatio="xMidYMid meet" version="1.0"><defs><clipPath id="38580eac98"><path d="M 0.699219 0.699219 L 1165.300781 0.699219 L 1165.300781 1165.300781 L 0.699219 1165.300781 Z M 0.699219 0.699219 " clip-rule="nonzero"/></clipPath><clipPath id="55dd24e031"><path d="M 150.699219 0.699219 L 1015.300781 0.699219 C 1098.144531 0.699219 1165.300781 67.855469 1165.300781 150.699219 L 1165.300781 1015.300781 C 1165.300781 1098.144531 1098.144531 1165.300781 1015.300781 1165.300781 L 150.699219 1165.300781 C 67.855469 1165.300781 0.699219 1098.144531 0.699219 1015.300781 L 0.699219 150.699219 C 0.699219 67.855469 67.855469 0.699219 150.699219 0.699219 Z M 150.699219 0.699219 " clip-rule="nonzero"/></clipPath><clipPath id="a1b8215586"><path d="M 0.699219 0.699219 L 1165.300781 0.699219 L 1165.300781 1165.300781 L 0.699219 1165.300781 Z M 0.699219 0.699219 " clip-rule="nonzero"/></clipPath><clipPath id="d39862c425"><path d="M 150.699219 0.699219 L 1015.300781 0.699219 C 1098.144531 0.699219 1165.300781 67.855469 1165.300781 150.699219 L 1165.300781 1015.300781 C 1165.300781 1098.144531 1098.144531 1165.300781 1015.300781 1165.300781 L 150.699219 1165.300781 C 67.855469 1165.300781 0.699219 1098.144531 0.699219 1015.300781 L 0.699219 150.699219 C 0.699219 67.855469 67.855469 0.699219 150.699219 0.699219 Z M 150.699219 0.699219 " clip-rule="nonzero"/></clipPath><clipPath id="1b761ad30a"><rect x="0" width="1166" y="0" height="1166"/></clipPath><clipPath id="c5ab54ab75"><path d="M 0.519531 0.519531 L 1165.480469 0.519531 L 1165.480469 1165.480469 L 0.519531 1165.480469 Z M 0.519531 0.519531 " clip-rule="nonzero"/></clipPath><clipPath id="c04d08936a"><rect x="0" width="1166" y="0" height="1166"/></clipPath></defs><g transform="matrix(1, 0, 0, 1, 137, 137)"><g clip-path="url(#c04d08936a)"><g clip-path="url(#38580eac98)"><g clip-path="url(#55dd24e031)"><g transform="matrix(1, 0, 0, 1, 0, -0.000000000000085265)"><g clip-path="url(#1b761ad30a)"><g clip-path="url(#a1b8215586)"><g clip-path="url(#d39862c425)"><path fill="#cbbeff" d="M 0.699219 0.699219 L 1165.300781 0.699219 L 1165.300781 1165.300781 L 0.699219 1165.300781 Z M 0.699219 0.699219 " fill-opacity="1" fill-rule="nonzero"/></g></g></g></g></g></g><g clip-path="url(#c5ab54ab75)"><path stroke-linecap="round" transform="matrix(0.982285, 0, 0, 0.982285, 150.495866, 148.725931)" fill="none" stroke-linejoin="miter" d="M 32.501767 148.387072 L 32.501767 625.709875 C 32.501767 750.526427 133.684816 851.713453 258.501369 851.713453 L 647.561408 851.713453 C 772.37796 851.713453 873.56101 750.526427 873.56101 625.709875 L 873.56101 119.854279 C 873.56101 96.686049 864.358935 74.468249 847.974949 58.084262 C 831.594938 41.704252 809.377139 32.498201 786.208909 32.498201 C 763.040679 32.498201 740.822879 41.704252 724.438892 58.084262 C 708.058882 74.468249 698.856808 96.686049 698.856808 119.854279 L 698.856808 153.54087 C 698.856808 185.640758 686.103544 216.428338 663.404564 239.131294 C 640.701607 261.830274 609.918005 274.579561 577.814139 274.579561 L 323.707251 274.579561 C 291.607362 274.579561 260.819783 261.830274 238.120803 239.131294 C 215.421823 216.428338 202.668559 185.640758 202.668559 153.54087 L 202.668559 117.583586 C 202.668559 70.594947 164.57579 32.498201 117.583175 32.498201 C 70.594537 32.498201 32.501767 70.594947 32.501767 117.583586 L 32.501767 537.164765 " stroke="#3b2d8e" stroke-width="65" stroke-opacity="1" stroke-miterlimit="4"/></g><path stroke-linecap="round" transform="matrix(0, -0.982285, 0.982285, 0, 358.095498, 883.017003)" fill="none" stroke-linejoin="miter" d="M 91.000134 91.000929 L 302.178591 91.000929 " stroke="#3b2d8e" stroke-width="182" stroke-opacity="1" stroke-miterlimit="4"/><path stroke-linecap="round" transform="matrix(0, -0.982285, 0.982285, 0, 654.125044, 883.017003)" fill="none" stroke-linejoin="miter" d="M 91.000134 90.998687 L 302.178591 90.998687 " stroke="#3b2d8e" stroke-width="182" stroke-opacity="1" stroke-miterlimit="4"/></g></g></svg>