<svg xmlns="http://www.w3.org/2000/svg" xmlns:xlink="http://www.w3.org/1999/xlink" width="1920" zoomAndPan="magnify" viewBox="0 0 1440 1439.999935" height="1920" preserveAspectRatio="xMidYMid meet" version="1.0"><defs><clipPath id="6d4fb7bf68"><path d="M 0.605469 0.605469 L 1183.394531 0.605469 L 1183.394531 1183.394531 L 0.605469 1183.394531 Z M 0.605469 0.605469 " clip-rule="nonzero"/></clipPath><clipPath id="b1dcb07433"><path d="M 150.605469 0.605469 L 1033.394531 0.605469 C 1073.179688 0.605469 1111.332031 16.40625 1139.460938 44.539062 C 1167.59375 72.667969 1183.394531 110.820312 1183.394531 150.605469 L 1183.394531 1033.394531 C 1183.394531 1073.179688 1167.59375 1111.332031 1139.460938 1139.460938 C 1111.332031 1167.59375 1073.179688 1183.394531 1033.394531 1183.394531 L 150.605469 1183.394531 C 110.820312 1183.394531 72.667969 1167.59375 44.539062 1139.460938 C 16.40625 1111.332031 0.605469 1073.179688 0.605469 1033.394531 L 0.605469 150.605469 C 0.605469 110.820312 16.40625 72.667969 44.539062 44.539062 C 72.667969 16.40625 110.820312 0.605469 150.605469 0.605469 Z M 150.605469 0.605469 " clip-rule="nonzero"/></clipPath><clipPath id="d5bdadbded"><path d="M 0.605469 0.605469 L 1183.394531 0.605469 L 1183.394531 1183.394531 L 0.605469 1183.394531 Z M 0.605469 0.605469 " clip-rule="nonzero"/></clipPath><clipPath id="5458f48b67"><path d="M 150.605469 0.605469 L 1033.394531 0.605469 C 1073.179688 0.605469 1111.332031 16.40625 1139.460938 44.539062 C 1167.59375 72.667969 1183.394531 110.820312 1183.394531 150.605469 L 1183.394531 1033.394531 C 1183.394531 1073.179688 1167.59375 1111.332031 1139.460938 1139.460938 C 1111.332031 1167.59375 1073.179688 1183.394531 1033.394531 1183.394531 L 150.605469 1183.394531 C 110.820312 1183.394531 72.667969 1167.59375 44.539062 1139.460938 C 16.40625 1111.332031 0.605469 1073.179688 0.605469 1033.394531 L 0.605469 150.605469 C 0.605469 110.820312 16.40625 72.667969 44.539062 44.539062 C 72.667969 16.40625 110.820312 0.605469 150.605469 0.605469 Z M 150.605469 0.605469 " clip-rule="nonzero"/></clipPath><clipPath id="a19dcdcf84"><rect x="0" width="1184" y="0" height="1184"/></clipPath><clipPath id="e8552cd209"><rect x="0" width="1184" y="0" height="1184"/></clipPath></defs><g transform="matrix(1, 0, 0, 1, 128, 128)"><g clip-path="url(#e8552cd209)"><g clip-path="url(#6d4fb7bf68)"><g clip-path="url(#b1dcb07433)"><g transform="matrix(1, 0, 0, 1, 0, -0.000000000000085265)"><g clip-path="url(#a19dcdcf84)"><g clip-path="url(#d5bdadbded)"><g clip-path="url(#5458f48b67)"><path fill="#cbbeff" d="M 0.605469 0.605469 L 1183.394531 0.605469 L 1183.394531 1183.394531 L 0.605469 1183.394531 Z M 0.605469 0.605469 " fill-opacity="1" fill-rule="nonzero"/></g></g></g></g></g></g><path fill="#ece7ff" d="M 219.03125 278.972656 C 222.480469 228.671875 250.445312 217.050781 298.566406 212.328125 C 346.6875 207.605469 587.480469 212.328125 587.480469 212.328125 L 587.480469 308.207031 C 587.480469 308.207031 503.21875 338.535156 510.300781 393.554688 C 517.382812 448.578125 544.261719 477.8125 587.480469 481.265625 L 587.480469 578.414062 L 462.363281 584.042969 C 463.453125 652.867188 409.703125 663.761719 373.382812 645.058594 C 337.066406 626.355469 346.507812 584.042969 346.507812 584.042969 L 219.03125 584.042969 C 219.03125 584.042969 215.398438 329.273438 219.03125 278.972656 Z M 765.4375 650.6875 L 732.023438 735.855469 C 755.449219 745.117188 782.507812 781.253906 769.25 833.003906 C 755.996094 884.757812 700.066406 911.089844 667.921875 898.558594 L 631.96875 989.898438 C 631.96875 989.898438 867.128906 1090.863281 898.363281 1101.761719 C 929.597656 1112.65625 972.089844 1123.550781 1000.054688 1056.363281 C 1028.019531 988.992188 1106.828125 785.066406 1106.828125 785.066406 L 992.246094 740.03125 C 992.246094 740.03125 1008.226562 666.667969 971.542969 647.964844 C 934.863281 629.261719 894.367188 648.871094 881.292969 689.367188 Z M 765.4375 650.6875 " fill-opacity="1" fill-rule="nonzero"/><path fill="#3b2d8e" d="M 913.253906 210.148438 C 986.070312 212.328125 980.804688 262.265625 983.527344 290.046875 C 986.253906 317.832031 983.527344 583.863281 983.527344 583.863281 L 889.464844 583.863281 C 886.742188 560.980469 849.695312 497.96875 779.421875 509.957031 C 709.144531 521.941406 715.863281 583.863281 715.863281 583.863281 L 621.800781 583.863281 L 621.800781 460.925781 C 584.753906 462.195312 543.535156 430.417969 547.527344 392.101562 C 551.523438 353.605469 592.5625 329.816406 616.351562 336.535156 L 621.617188 210.148438 C 621.617188 210.148438 840.253906 207.96875 913.253906 210.148438 Z M 487.785156 612.191406 C 493.050781 650.6875 434.761719 707.527344 381.734375 693 C 328.710938 678.472656 315.457031 612.191406 315.457031 612.191406 L 217.394531 612.191406 C 217.394531 612.191406 216.125 834.820312 217.394531 895.835938 C 218.667969 956.851562 265.15625 983.363281 299.65625 984.816406 C 334.160156 986.269531 586.753906 978.097656 586.753906 978.097656 L 587.480469 857.519531 C 639.414062 861.515625 670.828125 816.480469 664.109375 785.972656 C 657.574219 755.464844 627.066406 731.675781 587.480469 738.214844 C 587.480469 738.214844 586.027344 616.367188 587.480469 612.371094 L 487.785156 612.371094 Z M 487.785156 612.191406 " fill-opacity="1" fill-rule="nonzero"/></g></g></svg>