<svg xmlns="http://www.w3.org/2000/svg" xmlns:xlink="http://www.w3.org/1999/xlink" width="1920" zoomAndPan="magnify" viewBox="0 0 1440 1439.999935" height="1920" preserveAspectRatio="xMidYMid meet" version="1.0"><path stroke-linecap="round" transform="matrix(0.75, 0, 0, 0.75, 154.579692, 163.054067)" fill="none" stroke-linejoin="miter" d="M 54.497916 249.078973 L 54.497916 1050.688418 C 54.497916 1260.558228 224.633347 1430.688451 434.497949 1430.688451 L 1087.393839 1430.688451 C 1297.263648 1430.688451 1467.393872 1260.558228 1467.393872 1050.688418 L 1467.393872 201.245636 C 1467.393872 162.323757 1451.935537 125.000838 1424.414701 97.480002 C 1396.893865 69.959166 1359.570946 54.500831 1320.649067 54.500831 C 1281.732397 54.500831 1244.404269 69.959166 1216.888641 97.480002 C 1189.367806 125.000838 1173.904263 162.323757 1173.904263 201.245636 L 1173.904263 257.834182 C 1173.904263 370.136276 1082.867796 461.172742 970.570912 461.172742 L 543.701083 461.172742 C 431.39899 461.172742 340.362524 370.136276 340.362524 257.834182 L 340.362524 197.433136 C 340.362524 159.521674 325.305231 123.167504 298.497937 96.365418 C 271.695851 69.558124 235.341681 54.500831 197.43022 54.500831 C 159.523966 54.500831 123.169797 69.558124 96.362503 96.365418 C 69.560417 123.167504 54.497916 159.521674 54.497916 197.433136 L 54.497916 902.381113 " stroke="#cbbeff" stroke-width="109" stroke-opacity="1" stroke-miterlimit="4"/><path stroke-linecap="round" transform="matrix(0, -0.75, 0.75, 0, 421.060076, 1104.813292)" fill="none" stroke-linejoin="miter" d="M 152.501069 152.498037 L 507.995892 152.498037 " stroke="#cbbeff" stroke-width="305" stroke-opacity="1" stroke-miterlimit="4"/><path stroke-linecap="round" transform="matrix(0, -0.75, 0.75, 0, 800.760083, 1104.813292)" fill="none" stroke-linejoin="miter" d="M 152.501069 152.502194 L 507.995892 152.502194 " stroke="#cbbeff" stroke-width="305" stroke-opacity="1" stroke-miterlimit="4"/></svg>